%TF.GenerationSoftware,KiCad,Pcbnew,9.0.7*%
%TF.CreationDate,2026-04-27T20:39:41+02:00*%
%TF.ProjectId,PROJECTE_CASTRO_RIBAS,50524f4a-4543-4544-955f-43415354524f,rev?*%
%TF.SameCoordinates,Original*%
%TF.FileFunction,Soldermask,Bot*%
%TF.FilePolarity,Negative*%
%FSLAX46Y46*%
G04 Gerber Fmt 4.6, Leading zero omitted, Abs format (unit mm)*
G04 Created by KiCad (PCBNEW 9.0.7) date 2026-04-27 20:39:41*
%MOMM*%
%LPD*%
G01*
G04 APERTURE LIST*
G04 Aperture macros list*
%AMRoundRect*
0 Rectangle with rounded corners*
0 $1 Rounding radius*
0 $2 $3 $4 $5 $6 $7 $8 $9 X,Y pos of 4 corners*
0 Add a 4 corners polygon primitive as box body*
4,1,4,$2,$3,$4,$5,$6,$7,$8,$9,$2,$3,0*
0 Add four circle primitives for the rounded corners*
1,1,$1+$1,$2,$3*
1,1,$1+$1,$4,$5*
1,1,$1+$1,$6,$7*
1,1,$1+$1,$8,$9*
0 Add four rect primitives between the rounded corners*
20,1,$1+$1,$2,$3,$4,$5,0*
20,1,$1+$1,$4,$5,$6,$7,0*
20,1,$1+$1,$6,$7,$8,$9,0*
20,1,$1+$1,$8,$9,$2,$3,0*%
G04 Aperture macros list end*
%ADD10RoundRect,0.250000X-0.550000X-0.550000X0.550000X-0.550000X0.550000X0.550000X-0.550000X0.550000X0*%
%ADD11C,1.600000*%
%ADD12R,2.000000X1.905000*%
%ADD13O,2.000000X1.905000*%
%ADD14C,2.100000*%
%ADD15RoundRect,0.249999X0.850001X0.850001X-0.850001X0.850001X-0.850001X-0.850001X0.850001X-0.850001X0*%
%ADD16C,2.200000*%
%ADD17R,1.700000X1.700000*%
%ADD18C,1.700000*%
%ADD19R,1.600000X1.600000*%
%ADD20C,2.400000*%
%ADD21R,2.000000X2.000000*%
%ADD22C,2.000000*%
%ADD23R,1.800000X1.800000*%
%ADD24C,1.800000*%
G04 APERTURE END LIST*
D10*
%TO.C,Cout_reg1*%
X162200000Y-57900000D03*
D11*
X164700000Y-57900000D03*
%TD*%
D12*
%TO.C,MOSFET_controltancament1*%
X188150000Y-88160000D03*
D13*
X188150000Y-90700000D03*
X188150000Y-93240000D03*
%TD*%
D14*
%TO.C,REF\u002A\u002A*%
X212090000Y-127000000D03*
%TD*%
D15*
%TO.C,D_proteccio_bomba2*%
X192260000Y-78735000D03*
D16*
X182100000Y-78735000D03*
%TD*%
D11*
%TO.C,Cin_DCDC1*%
X142750000Y-67975000D03*
X137750000Y-67975000D03*
%TD*%
D17*
%TO.C,J3*%
X135645000Y-124775000D03*
D18*
X138185000Y-124775000D03*
X140725000Y-124775000D03*
X143265000Y-124775000D03*
X145805000Y-124775000D03*
%TD*%
D12*
%TO.C,MOSFET_controlbomba1*%
X188175000Y-57280000D03*
D13*
X188175000Y-59820000D03*
X188175000Y-62360000D03*
%TD*%
D19*
%TO.C,J1*%
X110725331Y-74960000D03*
D11*
X110725331Y-77730000D03*
X110725331Y-80500000D03*
X110725331Y-83270000D03*
X110725331Y-86040000D03*
X108185331Y-76345000D03*
X108185331Y-79115000D03*
X108185331Y-81885000D03*
X108185331Y-84655000D03*
%TD*%
D20*
%TO.C,K2*%
X198825000Y-83310000D03*
X198825000Y-78270000D03*
D21*
X198825000Y-103470000D03*
D22*
X198825000Y-99690000D03*
%TD*%
D17*
%TO.C,RF_conn1*%
X206375000Y-114300000D03*
D18*
X206375000Y-116840000D03*
X206375000Y-119380000D03*
X206375000Y-121920000D03*
%TD*%
D14*
%TO.C,REF\u002A\u002A*%
X102870000Y-45720000D03*
%TD*%
D15*
%TO.C,D_proteccio_bomba1*%
X192135000Y-48685000D03*
D16*
X181975000Y-48685000D03*
%TD*%
D17*
%TO.C,Connector_Tancament1*%
X207250000Y-87685000D03*
D18*
X207250000Y-90225000D03*
%TD*%
D17*
%TO.C,J4*%
X102575000Y-51400000D03*
D18*
X102575000Y-53940000D03*
%TD*%
D14*
%TO.C,REF\u002A\u002A*%
X102870000Y-127000000D03*
%TD*%
%TO.C,REF\u002A\u002A*%
X212090000Y-45720000D03*
%TD*%
D23*
%TO.C,D3*%
X179525000Y-58810000D03*
D24*
X179525000Y-61350000D03*
%TD*%
D11*
%TO.C,Cout_DCDC1*%
X140125000Y-48975000D03*
X140125000Y-53975000D03*
%TD*%
D19*
%TO.C,J2*%
X110725331Y-107560000D03*
D11*
X110725331Y-110330000D03*
X110725331Y-113100000D03*
X110725331Y-115870000D03*
X110725331Y-118640000D03*
X108185331Y-108945000D03*
X108185331Y-111715000D03*
X108185331Y-114485000D03*
X108185331Y-117255000D03*
%TD*%
D20*
%TO.C,K1*%
X198847500Y-53577500D03*
X198847500Y-48537500D03*
D21*
X198847500Y-73737500D03*
D22*
X198847500Y-69957500D03*
%TD*%
D17*
%TO.C,Connector_Bomba1*%
X207075000Y-58560000D03*
D18*
X207075000Y-61100000D03*
%TD*%
D23*
%TO.C,D4*%
X180000000Y-90245000D03*
D24*
X180000000Y-92785000D03*
%TD*%
M02*
