%TF.GenerationSoftware,KiCad,Pcbnew,9.0.7*%
%TF.CreationDate,2026-04-27T20:39:41+02:00*%
%TF.ProjectId,PROJECTE_CASTRO_RIBAS,50524f4a-4543-4544-955f-43415354524f,rev?*%
%TF.SameCoordinates,Original*%
%TF.FileFunction,Paste,Top*%
%TF.FilePolarity,Positive*%
%FSLAX46Y46*%
G04 Gerber Fmt 4.6, Leading zero omitted, Abs format (unit mm)*
G04 Created by KiCad (PCBNEW 9.0.7) date 2026-04-27 20:39:41*
%MOMM*%
%LPD*%
G01*
G04 APERTURE LIST*
G04 Aperture macros list*
%AMRoundRect*
0 Rectangle with rounded corners*
0 $1 Rounding radius*
0 $2 $3 $4 $5 $6 $7 $8 $9 X,Y pos of 4 corners*
0 Add a 4 corners polygon primitive as box body*
4,1,4,$2,$3,$4,$5,$6,$7,$8,$9,$2,$3,0*
0 Add four circle primitives for the rounded corners*
1,1,$1+$1,$2,$3*
1,1,$1+$1,$4,$5*
1,1,$1+$1,$6,$7*
1,1,$1+$1,$8,$9*
0 Add four rect primitives between the rounded corners*
20,1,$1+$1,$2,$3,$4,$5,0*
20,1,$1+$1,$4,$5,$6,$7,0*
20,1,$1+$1,$6,$7,$8,$9,0*
20,1,$1+$1,$8,$9,$2,$3,0*%
%AMFreePoly0*
4,1,19,0.429469,0.119388,0.435355,0.114645,0.464645,0.085355,0.474192,0.067870,0.475000,0.060355,0.475000,-0.089645,0.469388,-0.108759,0.454332,-0.121805,0.439645,-0.125000,-0.439645,-0.125000,-0.458759,-0.119388,-0.471805,-0.104332,-0.475000,-0.089645,-0.475000,0.089645,-0.469388,0.108759,-0.454332,0.121805,-0.439645,0.125000,0.410355,0.125000,0.429469,0.119388,0.429469,0.119388,
$1*%
%AMFreePoly1*
4,1,19,0.408759,0.119388,0.421805,0.104332,0.425000,0.089645,0.425000,-0.060355,0.419388,-0.079469,0.414645,-0.085355,0.385355,-0.114645,0.367870,-0.124192,0.360355,-0.125000,-0.389645,-0.125000,-0.408759,-0.119388,-0.421805,-0.104332,-0.425000,-0.089645,-0.425000,0.089645,-0.419388,0.108759,-0.404332,0.121805,-0.389645,0.125000,0.389645,0.125000,0.408759,0.119388,0.408759,0.119388,
$1*%
%AMFreePoly2*
4,1,19,0.108759,0.419388,0.121805,0.404332,0.125000,0.389645,0.125000,-0.389645,0.119388,-0.408759,0.104332,-0.421805,0.089645,-0.425000,-0.089645,-0.425000,-0.108759,-0.419388,-0.121805,-0.404332,-0.125000,-0.389645,-0.125000,0.360355,-0.119388,0.379469,-0.114645,0.385355,-0.085355,0.414645,-0.067870,0.424192,-0.060355,0.425000,0.089645,0.425000,0.108759,0.419388,0.108759,0.419388,
$1*%
%AMFreePoly3*
4,1,19,0.079469,0.419388,0.085355,0.414645,0.114645,0.385355,0.124192,0.367870,0.125000,0.360355,0.125000,-0.389645,0.119388,-0.408759,0.104332,-0.421805,0.089645,-0.425000,-0.089645,-0.425000,-0.108759,-0.419388,-0.121805,-0.404332,-0.125000,-0.389645,-0.125000,0.389645,-0.119388,0.408759,-0.104332,0.421805,-0.089645,0.425000,0.060355,0.425000,0.079469,0.419388,0.079469,0.419388,
$1*%
%AMFreePoly4*
4,1,19,0.408759,0.119388,0.421805,0.104332,0.425000,0.089645,0.425000,-0.089645,0.419388,-0.108759,0.404332,-0.121805,0.389645,-0.125000,-0.360355,-0.125000,-0.379469,-0.119388,-0.385355,-0.114645,-0.414645,-0.085355,-0.424192,-0.067870,-0.425000,-0.060355,-0.425000,0.089645,-0.419388,0.108759,-0.404332,0.121805,-0.389645,0.125000,0.389645,0.125000,0.408759,0.119388,0.408759,0.119388,
$1*%
%AMFreePoly5*
4,1,19,0.408759,0.119388,0.421805,0.104332,0.425000,0.089645,0.425000,-0.089645,0.419388,-0.108759,0.404332,-0.121805,0.389645,-0.125000,-0.389645,-0.125000,-0.408759,-0.119388,-0.421805,-0.104332,-0.425000,-0.089645,-0.425000,0.060355,-0.419388,0.079469,-0.414645,0.085355,-0.385355,0.114645,-0.367870,0.124192,-0.360355,0.125000,0.389645,0.125000,0.408759,0.119388,0.408759,0.119388,
$1*%
%AMFreePoly6*
4,1,19,0.108759,0.419388,0.121805,0.404332,0.125000,0.389645,0.125000,-0.360355,0.119388,-0.379469,0.114645,-0.385355,0.085355,-0.414645,0.067870,-0.424192,0.060355,-0.425000,-0.089645,-0.425000,-0.108759,-0.419388,-0.121805,-0.404332,-0.125000,-0.389645,-0.125000,0.389645,-0.119388,0.408759,-0.104332,0.421805,-0.089645,0.425000,0.089645,0.425000,0.108759,0.419388,0.108759,0.419388,
$1*%
%AMFreePoly7*
4,1,19,0.108759,0.419388,0.121805,0.404332,0.125000,0.389645,0.125000,-0.389645,0.119388,-0.408759,0.104332,-0.421805,0.089645,-0.425000,-0.060355,-0.425000,-0.079469,-0.419388,-0.085355,-0.414645,-0.114645,-0.385355,-0.124192,-0.367870,-0.125000,-0.360355,-0.125000,0.389645,-0.119388,0.408759,-0.104332,0.421805,-0.089645,0.425000,0.089645,0.425000,0.108759,0.419388,0.108759,0.419388,
$1*%
G04 Aperture macros list end*
%ADD10RoundRect,0.250000X-0.450000X0.262500X-0.450000X-0.262500X0.450000X-0.262500X0.450000X0.262500X0*%
%ADD11RoundRect,0.250000X-0.262500X-0.450000X0.262500X-0.450000X0.262500X0.450000X-0.262500X0.450000X0*%
%ADD12RoundRect,0.190000X0.610000X0.190000X-0.610000X0.190000X-0.610000X-0.190000X0.610000X-0.190000X0*%
%ADD13RoundRect,0.250000X-1.125000X1.275000X-1.125000X-1.275000X1.125000X-1.275000X1.125000X1.275000X0*%
%ADD14RoundRect,0.250000X-0.350000X0.850000X-0.350000X-0.850000X0.350000X-0.850000X0.350000X0.850000X0*%
%ADD15RoundRect,0.250000X-0.250000X-0.475000X0.250000X-0.475000X0.250000X0.475000X-0.250000X0.475000X0*%
%ADD16RoundRect,0.218750X-0.381250X0.218750X-0.381250X-0.218750X0.381250X-0.218750X0.381250X0.218750X0*%
%ADD17RoundRect,0.250000X-0.750000X-0.950000X0.750000X-0.950000X0.750000X0.950000X-0.750000X0.950000X0*%
%ADD18RoundRect,0.250000X0.475000X-0.250000X0.475000X0.250000X-0.475000X0.250000X-0.475000X-0.250000X0*%
%ADD19RoundRect,0.250000X0.450000X-0.262500X0.450000X0.262500X-0.450000X0.262500X-0.450000X-0.262500X0*%
%ADD20FreePoly0,0.000000*%
%ADD21RoundRect,0.062500X-0.362500X-0.062500X0.362500X-0.062500X0.362500X0.062500X-0.362500X0.062500X0*%
%ADD22FreePoly1,0.000000*%
%ADD23FreePoly2,0.000000*%
%ADD24RoundRect,0.062500X-0.062500X-0.612500X0.062500X-0.612500X0.062500X0.612500X-0.062500X0.612500X0*%
%ADD25FreePoly3,0.000000*%
%ADD26FreePoly4,0.000000*%
%ADD27FreePoly5,0.000000*%
%ADD28FreePoly6,0.000000*%
%ADD29FreePoly7,0.000000*%
%ADD30RoundRect,0.250000X0.650000X-1.450000X0.650000X1.450000X-0.650000X1.450000X-0.650000X-1.450000X0*%
%ADD31RoundRect,0.250000X-0.475000X0.250000X-0.475000X-0.250000X0.475000X-0.250000X0.475000X0.250000X0*%
%ADD32RoundRect,0.250000X0.262500X0.450000X-0.262500X0.450000X-0.262500X-0.450000X0.262500X-0.450000X0*%
%ADD33RoundRect,0.250000X-1.450000X0.312500X-1.450000X-0.312500X1.450000X-0.312500X1.450000X0.312500X0*%
%ADD34RoundRect,0.250000X-1.450000X-0.650000X1.450000X-0.650000X1.450000X0.650000X-1.450000X0.650000X0*%
%ADD35RoundRect,0.150000X0.825000X0.150000X-0.825000X0.150000X-0.825000X-0.150000X0.825000X-0.150000X0*%
%ADD36RoundRect,0.150000X0.150000X-0.875000X0.150000X0.875000X-0.150000X0.875000X-0.150000X-0.875000X0*%
%ADD37RoundRect,0.250000X-0.830000X-0.310000X0.830000X-0.310000X0.830000X0.310000X-0.830000X0.310000X0*%
%ADD38RoundRect,0.250000X-1.000000X-0.650000X1.000000X-0.650000X1.000000X0.650000X-1.000000X0.650000X0*%
%ADD39RoundRect,0.225000X-0.375000X0.225000X-0.375000X-0.225000X0.375000X-0.225000X0.375000X0.225000X0*%
%ADD40RoundRect,0.250000X1.450000X0.650000X-1.450000X0.650000X-1.450000X-0.650000X1.450000X-0.650000X0*%
%ADD41R,2.950000X3.500000*%
%ADD42RoundRect,0.225000X0.225000X0.375000X-0.225000X0.375000X-0.225000X-0.375000X0.225000X-0.375000X0*%
%ADD43RoundRect,0.250000X2.375000X-2.025000X2.375000X2.025000X-2.375000X2.025000X-2.375000X-2.025000X0*%
%ADD44RoundRect,0.250000X0.300000X-2.050000X0.300000X2.050000X-0.300000X2.050000X-0.300000X-2.050000X0*%
G04 APERTURE END LIST*
D10*
%TO.C,R40*%
X184500000Y-93500000D03*
X184500000Y-95325000D03*
%TD*%
D11*
%TO.C,R4*%
X158925000Y-82750000D03*
X160750000Y-82750000D03*
%TD*%
D12*
%TO.C,SW5*%
X165300000Y-124150000D03*
X157680000Y-124150000D03*
%TD*%
D13*
%TO.C,U2*%
X159055000Y-72285000D03*
X156005000Y-72285000D03*
X159055000Y-75635000D03*
X156005000Y-75635000D03*
D14*
X159810000Y-67660000D03*
X157530000Y-67660000D03*
X155250000Y-67660000D03*
%TD*%
D15*
%TO.C,Cin_reg1*%
X155475000Y-49377500D03*
X157375000Y-49377500D03*
%TD*%
D16*
%TO.C,L1*%
X194945000Y-121065000D03*
X194945000Y-123190000D03*
%TD*%
D11*
%TO.C,R7*%
X155925000Y-119500000D03*
X157750000Y-119500000D03*
%TD*%
D17*
%TO.C,Y1*%
X150423000Y-105410000D03*
X154123000Y-105410000D03*
%TD*%
D18*
%TO.C,C6*%
X135750000Y-112150000D03*
X135750000Y-110250000D03*
%TD*%
D19*
%TO.C,R_CAN_H_L1*%
X120000000Y-112075000D03*
X120000000Y-110250000D03*
%TD*%
D18*
%TO.C,C5*%
X131500000Y-83650000D03*
X131500000Y-81750000D03*
%TD*%
D11*
%TO.C,R2*%
X130175000Y-117250000D03*
X132000000Y-117250000D03*
%TD*%
D20*
%TO.C,U6*%
X183970000Y-120690000D03*
D21*
X183920000Y-121190000D03*
X183920000Y-121690000D03*
D22*
X183920000Y-122190000D03*
D23*
X184620000Y-122890000D03*
D24*
X185120000Y-122640000D03*
X185620000Y-122640000D03*
D25*
X186120000Y-122890000D03*
D26*
X186820000Y-122190000D03*
D21*
X186820000Y-121690000D03*
X186820000Y-121190000D03*
D27*
X186820000Y-120690000D03*
D28*
X186120000Y-119990000D03*
D24*
X185620000Y-120240000D03*
X185120000Y-120240000D03*
D29*
X184620000Y-119990000D03*
%TD*%
D18*
%TO.C,C2*%
X131500000Y-91400000D03*
X131500000Y-89500000D03*
%TD*%
D30*
%TO.C,TP4*%
X143510000Y-105410000D03*
%TD*%
D31*
%TO.C,C9*%
X133500000Y-97350000D03*
X133500000Y-99250000D03*
%TD*%
D11*
%TO.C,R6*%
X167925000Y-119500000D03*
X169750000Y-119500000D03*
%TD*%
D32*
%TO.C,R41*%
X184412500Y-62500000D03*
X182587500Y-62500000D03*
%TD*%
D33*
%TO.C,FB1*%
X168010000Y-68075000D03*
X168010000Y-72350000D03*
%TD*%
D34*
%TO.C,TP7*%
X167910000Y-65000000D03*
%TD*%
D31*
%TO.C,C1*%
X117500000Y-89600000D03*
X117500000Y-91500000D03*
%TD*%
D18*
%TO.C,C3*%
X131500000Y-87500000D03*
X131500000Y-85600000D03*
%TD*%
%TO.C,C8*%
X110500000Y-91500000D03*
X110500000Y-89600000D03*
%TD*%
D34*
%TO.C,TP6*%
X167910000Y-76750000D03*
%TD*%
D15*
%TO.C,C11*%
X153990000Y-110744000D03*
X155890000Y-110744000D03*
%TD*%
D35*
%TO.C,U4*%
X126325000Y-91265000D03*
X126325000Y-89995000D03*
X126325000Y-88725000D03*
X126325000Y-87455000D03*
X126325000Y-86185000D03*
X126325000Y-84915000D03*
X126325000Y-83645000D03*
X126325000Y-82375000D03*
X121375000Y-82375000D03*
X121375000Y-83645000D03*
X121375000Y-84915000D03*
X121375000Y-86185000D03*
X121375000Y-87455000D03*
X121375000Y-88725000D03*
X121375000Y-89995000D03*
X121375000Y-91265000D03*
%TD*%
D36*
%TO.C,U20*%
X141495000Y-98500000D03*
X142765000Y-98500000D03*
X144035000Y-98500000D03*
X145305000Y-98500000D03*
X146575000Y-98500000D03*
X147845000Y-98500000D03*
X149115000Y-98500000D03*
X150385000Y-98500000D03*
X151655000Y-98500000D03*
X152925000Y-98500000D03*
X154195000Y-98500000D03*
X155465000Y-98500000D03*
X156735000Y-98500000D03*
X158005000Y-98500000D03*
X158005000Y-89200000D03*
X156735000Y-89200000D03*
X155465000Y-89200000D03*
X154195000Y-89200000D03*
X152925000Y-89200000D03*
X151655000Y-89200000D03*
X150385000Y-89200000D03*
X149115000Y-89200000D03*
X147845000Y-89200000D03*
X146575000Y-89200000D03*
X145305000Y-89200000D03*
X144035000Y-89200000D03*
X142765000Y-89200000D03*
X141495000Y-89200000D03*
%TD*%
D37*
%TO.C,SW3*%
X122595000Y-121700000D03*
X122595000Y-124240000D03*
X129325000Y-124240000D03*
X129325000Y-121700000D03*
%TD*%
D38*
%TO.C,D_schottky_DCDC1*%
X124200000Y-74425000D03*
X128200000Y-74425000D03*
%TD*%
D31*
%TO.C,C20*%
X190695000Y-121040000D03*
X190695000Y-122940000D03*
%TD*%
D39*
%TO.C,D_Zener_Proteccio1*%
X109525000Y-63675000D03*
X109525000Y-66975000D03*
%TD*%
D15*
%TO.C,C10*%
X148648000Y-110744000D03*
X150548000Y-110744000D03*
%TD*%
D11*
%TO.C,R1*%
X137587500Y-104225000D03*
X139412500Y-104225000D03*
%TD*%
D34*
%TO.C,TP1*%
X149860000Y-73660000D03*
%TD*%
D10*
%TO.C,R9*%
X180000000Y-85425000D03*
X180000000Y-87250000D03*
%TD*%
D12*
%TO.C,SW4*%
X177225000Y-124450000D03*
X169605000Y-124450000D03*
%TD*%
D34*
%TO.C,TP8*%
X194000000Y-103500000D03*
%TD*%
D31*
%TO.C,C4*%
X131500000Y-93350000D03*
X131500000Y-95250000D03*
%TD*%
D40*
%TO.C,TP9*%
X192250000Y-73750000D03*
%TD*%
D30*
%TO.C,TP3*%
X116750000Y-68000000D03*
%TD*%
D41*
%TO.C,L_DCDC1*%
X123950000Y-48950000D03*
X129400000Y-48950000D03*
%TD*%
D42*
%TO.C,D_Proteccio1*%
X113925000Y-47450000D03*
X110625000Y-47450000D03*
%TD*%
D11*
%TO.C,R3*%
X155175000Y-82750000D03*
X157000000Y-82750000D03*
%TD*%
D30*
%TO.C,TP2*%
X152400000Y-60250000D03*
%TD*%
D10*
%TO.C,R8*%
X174250000Y-56675000D03*
X174250000Y-58500000D03*
%TD*%
D15*
%TO.C,C7*%
X151350000Y-82750000D03*
X153250000Y-82750000D03*
%TD*%
D43*
%TO.C,U1*%
X122900000Y-61250000D03*
X128450000Y-61250000D03*
X122900000Y-56400000D03*
X128450000Y-56400000D03*
D44*
X122275000Y-67975000D03*
X123975000Y-67975000D03*
X125675000Y-67975000D03*
X127375000Y-67975000D03*
X129075000Y-67975000D03*
%TD*%
D35*
%TO.C,U3*%
X130350000Y-113065000D03*
X130350000Y-111795000D03*
X130350000Y-110525000D03*
X130350000Y-109255000D03*
X125400000Y-109255000D03*
X125400000Y-110525000D03*
X125400000Y-111795000D03*
X125400000Y-113065000D03*
%TD*%
M02*
