M48
; DRILL file {KiCad 9.0.7} date 2026-04-27T20:39:53+0200
; FORMAT={-:-/ absolute / metric / decimal}
; #@! TF.CreationDate,2026-04-27T20:39:53+02:00
; #@! TF.GenerationSoftware,Kicad,Pcbnew,9.0.7
; #@! TF.FileFunction,Plated,1,2,PTH
FMAT,2
METRIC
; #@! TA.AperFunction,Plated,PTH,ViaDrill
T1C0.300
; #@! TA.AperFunction,Plated,PTH,ViaDrill
T2C0.400
; #@! TA.AperFunction,Plated,PTH,ViaDrill
T3C0.500
; #@! TA.AperFunction,Plated,PTH,ComponentDrill
T4C0.800
; #@! TA.AperFunction,Plated,PTH,ComponentDrill
T5C0.900
; #@! TA.AperFunction,Plated,PTH,ComponentDrill
T6C1.000
; #@! TA.AperFunction,Plated,PTH,ComponentDrill
T7C1.100
; #@! TA.AperFunction,Plated,PTH,ComponentDrill
T8C1.200
; #@! TA.AperFunction,Plated,PTH,ComponentDrill
T9C1.300
%
G90
G05
T1
X108.966Y-89.56
X110.49Y-88.316
X111.989Y-89.586
X115.976Y-89.611
X117.5Y-88.316
X119.634Y-90.018
X120.498Y-124.206
X120.548Y-121.717
X122.58Y-118.796
X122.606Y-126.924
X123.342Y-84.887
X123.368Y-86.182
X125.4Y-114.376
X129.794Y-81.712
X130.023Y-95.225
X131.521Y-80.416
X131.521Y-96.545
X131.978Y-99.238
X132.105Y-111.76
X132.994Y-95.25
X133.02Y-81.712
X133.502Y-100.533
X134.239Y-112.192
X135.8Y-108.7
X139.1Y-108.6
X142.773Y-87.401
X143.191Y-91.399
X144.005Y-91.148
X145.313Y-96.545
X145.796Y-115.875
X146.927Y-97.016
X150.393Y-100.66
X150.546Y-109.22
X150.546Y-112.471
X152.933Y-87.173
X152.933Y-94.844
X153.264Y-81.229
X154.381Y-101.575
X155.88Y-109.068
X155.905Y-112.446
X157.378Y-110.719
X157.7Y-101.8
X157.759Y-117.958
X157.988Y-91.161
X162.2Y-103.4
X163.652Y-124.155
X165.199Y-72.365
X165.303Y-122.758
X165.303Y-125.4
X166.8Y-101.1
X166.878Y-124.181
X168.018Y-70.917
X174.219Y-90.221
X174.269Y-55.448
X175.438Y-124.409
X177.216Y-123.038
X177.241Y-125.857
X178.46Y-85.471
X179.019Y-124.435
X182.474Y-122.199
X185.547Y-124.46
X188.163Y-96.317
X188.7Y-123.9
T2
X127.5Y-64.5
X134.5Y-47.5
T3
X100.7Y-54.0
X102.6Y-55.9
X104.5Y-53.9
X107.5Y-67.0
X109.5Y-62.0
X109.5Y-68.5
X111.5Y-67.0
X114.0Y-45.6
X114.0Y-49.4
X115.6Y-47.4
X124.72Y-58.81
X125.73Y-57.785
X125.73Y-59.69
X125.8Y-71.2
X126.62Y-58.82
X128.2Y-72.2
X128.2Y-76.8
X129.0Y-71.2
X129.2Y-64.8
X130.4Y-74.4
X130.6Y-68.0
X136.2Y-68.0
X137.8Y-66.4
X137.8Y-69.6
X138.6Y-54.0
X139.2Y-68.0
X140.2Y-52.4
X140.2Y-55.6
X140.69Y-67.97
X141.6Y-54.0
X142.75Y-65.83
X142.75Y-69.91
X144.99Y-67.98
X157.4Y-47.9
X157.4Y-51.0
X158.6Y-49.4
X159.9Y-65.5
X161.7Y-67.6
X165.275Y-64.999
X167.91Y-63.151
X170.56Y-65.0
X198.9Y-45.9
X198.9Y-50.7
X198.9Y-71.8
X198.9Y-75.6
X198.9Y-80.4
X198.9Y-101.6
X200.9Y-73.7
X200.9Y-103.5
X201.0Y-78.3
X201.01Y-48.54
X205.3Y-61.1
X205.4Y-90.2
X207.075Y-63.275
X207.3Y-92.1
X208.8Y-61.1
X209.2Y-90.3
T4
X137.75Y-67.975
X140.125Y-48.975
X140.125Y-53.975
X142.75Y-67.975
X162.2Y-57.9
X164.7Y-57.9
T5
X179.525Y-58.81
X179.525Y-61.35
X180.0Y-90.245
X180.0Y-92.785
T6
X102.575Y-51.4
X102.575Y-53.94
X108.185Y-76.345
X108.185Y-79.115
X108.185Y-81.885
X108.185Y-84.655
X108.185Y-108.945
X108.185Y-111.715
X108.185Y-114.485
X108.185Y-117.255
X110.725Y-74.96
X110.725Y-77.73
X110.725Y-80.5
X110.725Y-83.27
X110.725Y-86.04
X110.725Y-107.56
X110.725Y-110.33
X110.725Y-113.1
X110.725Y-115.87
X110.725Y-118.64
X135.645Y-124.775
X138.185Y-124.775
X140.725Y-124.775
X143.265Y-124.775
X145.805Y-124.775
X198.825Y-99.69
X198.825Y-103.47
X198.847Y-69.957
X198.847Y-73.737
X206.375Y-114.3
X206.375Y-116.84
X206.375Y-119.38
X206.375Y-121.92
X207.075Y-58.56
X207.075Y-61.1
X207.25Y-87.685
X207.25Y-90.225
T7
X181.975Y-48.685
X182.1Y-78.735
X192.135Y-48.685
X192.26Y-78.735
T8
X188.15Y-88.16
X188.15Y-90.7
X188.15Y-93.24
X188.175Y-57.28
X188.175Y-59.82
X188.175Y-62.36
T9
X198.825Y-78.27
X198.825Y-83.31
X198.847Y-48.537
X198.847Y-53.578
M30
